<svg xmlns="http://www.w3.org/2000/svg" width="22.91" height="22.91"><path data-name="Контур 17" d="M20.434 0h-3.207a.671.671 0 100 1.342h3.207a1.135 1.135 0 011.134 1.134v3.207a.671.671 0 101.342 0V2.476A2.479 2.479 0 0020.434 0z" fill="#f8f8f8"/><path data-name="Контур 18" d="M.671 6.354a.671.671 0 00.671-.671V2.476a1.135 1.135 0 011.134-1.134h3.207a.671.671 0 100-1.342H2.476A2.479 2.479 0 000 2.476v3.207a.671.671 0 00.671.671z" fill="#f8f8f8"/><path data-name="Контур 19" d="M5.683 21.568H2.476a1.135 1.135 0 01-1.134-1.134v-3.206a.671.671 0 10-1.342 0v3.206a2.479 2.479 0 002.476 2.476h3.207a.671.671 0 100-1.342z" fill="#f8f8f8"/><path data-name="Контур 20" d="M22.239 16.556a.671.671 0 00-.671.671v3.206a1.135 1.135 0 01-1.134 1.134h-3.207a.671.671 0 100 1.342h3.207a2.479 2.479 0 002.476-2.476v-3.206a.671.671 0 00-.671-.671z" fill="#f8f8f8"/><path data-name="Контур 21" d="M15.287 4.922h2.129a.528.528 0 01.527.527V7.58a.671.671 0 001.342 0V5.45a1.872 1.872 0 00-1.87-1.87h-2.129a.671.671 0 100 1.342z" fill="#f8f8f8"/><path data-name="Контур 22" d="M3.624 5.45v2.13a.671.671 0 001.342 0V5.45a.528.528 0 01.527-.527h2.131a.672.672 0 100-1.343h-2.13a1.872 1.872 0 00-1.87 1.87z" fill="#f8f8f8"/><path data-name="Контур 23" d="M7.624 17.898h-2.13a.528.528 0 01-.527-.527v-2.129a.671.671 0 10-1.342 0v2.129a1.872 1.872 0 001.87 1.87h2.129a.671.671 0 000-1.342z" fill="#f8f8f8"/><path data-name="Контур 24" d="M19.286 17.371v-2.129a.671.671 0 10-1.342 0v2.129a.528.528 0 01-.527.527h-2.129a.671.671 0 000 1.342h2.129a1.872 1.872 0 001.869-1.869z" fill="#f8f8f8"/><path data-name="Контур 25" d="M.045 11.455a.671.671 0 00.671.671h21.478a.671.671 0 100-1.342H.716a.671.671 0 00-.671.671z" fill="#f8f8f8"/></svg>